<?xml version="1.0" encoding="UTF-8"?>
<svg width="223.576px" height="223.576px" viewBox="0 0 223.576 223.576" version="1.1" xmlns="http://www.w3.org/2000/svg" xmlns:xlink="http://www.w3.org/1999/xlink">
    <title>usdc-logo</title>
    <g id="Page-1" stroke="none" stroke-width="1" fill="none" fill-rule="evenodd">
        <g id="usdc-aug2023">
            <path d="M111.788,0 C173.527,0 223.576,50.0491 223.576,111.788 C223.576,173.527 173.527,223.576 111.788,223.576 C50.0491,223.576 0,173.527 0,111.788 C0,50.0491 50.0491,0 111.788,0 Z" id="Path" fill="#2775CA"></path>
            <path d="M137.331,33.0735 C134.81,32.2682 132.749,33.7644 132.749,36.4109 L132.749,42.9196 C132.749,44.6942 134.086,46.7138 135.752,47.3245 C162.509,57.1246 181.656,82.8428 181.656,112.953 C181.656,143.063 162.509,168.78 135.752,178.581 C133.925,179.25 132.749,181.04 132.749,182.986 L132.749,189.494 C132.749,192.14 134.81,193.637 137.331,192.832 C171.144,182.028 195.629,150.35 195.629,112.953 C195.629,75.5556 171.144,43.877 137.331,33.0735 Z M90.828,36.4109 C90.828,33.7644 88.7668,32.2682 86.246,33.0735 C52.4321,43.877 27.947,75.5551 27.947,112.953 C27.947,150.351 52.4321,182.028 86.246,192.832 C88.7667,193.637 90.828,192.14 90.828,189.494 L90.828,182.986 C90.828,181.211 89.4905,179.191 87.8242,178.581 C61.0678,168.78 41.9205,143.062 41.9205,112.953 C41.9205,82.8433 61.0678,57.1246 87.8242,47.3245 C89.4905,46.7138 90.828,44.6942 90.828,42.9196 L90.828,36.4109 Z" id="Shape" fill="#FFFFFF"></path>
            <path d="M99.0134529,127.119808 L99.0134529,155.888179 C98.2720478,156.166134 97.2989537,156.420927 96.0941704,156.652556 C94.8893871,156.884185 93.5455904,157 92.0627803,157 C89.1898356,157 87.1278027,156.467252 85.8766816,155.401757 C84.6255605,154.336262 84,152.552716 84,150.051118 L84,78.3386581 C84,76.7635783 84.4402093,75.5359425 85.3206278,74.6557508 C86.2010463,73.7755591 87.4289985,73.1038339 89.0044843,72.6405751 C91.877429,71.6214058 95.3064275,70.9265176 99.2914798,70.5559105 C103.276532,70.1853035 107.029895,70 110.55157,70 C122.599402,70 131.519432,72.5479233 137.311659,77.64377 C143.103886,82.7396166 146,89.6421725 146,98.3514377 C146,107.060703 143.103886,114.032748 137.311659,119.267572 C131.519432,124.502396 122.877429,127.119808 111.38565,127.119808 L99.0134529,127.119808 Z M110.497835,115 C116.87013,115 121.880231,113.644068 125.528139,110.932203 C129.176046,108.220339 131,104.152542 131,98.7288136 C131,93.3050847 129.268398,89.3276836 125.805195,86.7966102 C122.341991,84.2655367 117.378066,83 110.91342,83 C108.789322,83 106.688312,83.0903955 104.61039,83.2711864 C102.532468,83.4519774 100.662338,83.6779661 99,83.9491525 L99,115 L110.497835,115 Z" id="Shape" fill="#FFFFFF" fill-rule="nonzero"></path>
        </g>
    </g>
</svg>